<?xml version="1.0" encoding="UTF-8"?>
<svg xmlns="http://www.w3.org/2000/svg" xmlns:xlink="http://www.w3.org/1999/xlink" width="854" height="480" viewBox="0 0 854 480">
<defs>
<g>
<g id="glyph-0-0">
<path d="M 2.277344 -0.210938 C 2.722656 -0.210938 3.054688 -0.363281 3.28125 -0.667969 C 3.507812 -0.972656 3.621094 -1.425781 3.621094 -2.019531 C 3.621094 -2.621094 3.507812 -3.070312 3.28125 -3.375 C 3.054688 -3.679688 2.722656 -3.832031 2.277344 -3.832031 C 1.832031 -3.832031 1.5 -3.679688 1.273438 -3.375 C 1.046875 -3.070312 0.933594 -2.621094 0.933594 -2.019531 C 0.933594 -1.425781 1.046875 -0.972656 1.273438 -0.667969 C 1.5 -0.363281 1.832031 -0.210938 2.277344 -0.210938 M 2.277344 0.078125 C 2.003906 0.078125 1.75 0.0351562 1.519531 -0.0585938 C 1.289062 -0.148438 1.085938 -0.28125 0.910156 -0.457031 C 0.707031 -0.660156 0.558594 -0.886719 0.460938 -1.144531 C 0.359375 -1.402344 0.3125 -1.695312 0.3125 -2.019531 C 0.3125 -2.347656 0.359375 -2.640625 0.460938 -2.898438 C 0.558594 -3.15625 0.707031 -3.386719 0.910156 -3.589844 C 1.089844 -3.765625 1.292969 -3.898438 1.519531 -3.988281 C 1.746094 -4.078125 2 -4.125 2.277344 -4.125 C 2.867188 -4.125 3.339844 -3.929688 3.703125 -3.546875 C 4.066406 -3.160156 4.246094 -2.652344 4.246094 -2.019531 C 4.246094 -1.699219 4.195312 -1.40625 4.097656 -1.144531 C 3.996094 -0.886719 3.847656 -0.65625 3.644531 -0.457031 C 3.464844 -0.277344 3.261719 -0.144531 3.035156 -0.0546875 C 2.808594 0.0351562 2.554688 0.078125 2.277344 0.078125 Z "/>
</g>
<g id="glyph-0-1">
<path d="M 2.777344 1.09375 L 2.777344 1.308594 L 0 1.308594 L 0 1.09375 Z "/>
</g>
<g id="glyph-0-2">
<path d="M 1.816406 -0.191406 C 2.074219 -0.191406 2.269531 -0.285156 2.40625 -0.46875 C 2.542969 -0.65625 2.613281 -0.925781 2.613281 -1.277344 C 2.613281 -1.628906 2.542969 -1.898438 2.40625 -2.085938 C 2.269531 -2.273438 2.074219 -2.367188 1.816406 -2.367188 C 1.558594 -2.367188 1.363281 -2.273438 1.226562 -2.09375 C 1.089844 -1.914062 1.023438 -1.652344 1.023438 -1.308594 C 1.023438 -0.949219 1.089844 -0.671875 1.230469 -0.480469 C 1.367188 -0.285156 1.5625 -0.191406 1.816406 -0.191406 M 0.933594 -2.230469 C 1.054688 -2.367188 1.195312 -2.46875 1.351562 -2.535156 C 1.507812 -2.601562 1.683594 -2.632812 1.878906 -2.632812 C 2.28125 -2.632812 2.597656 -2.511719 2.832031 -2.269531 C 3.066406 -2.027344 3.183594 -1.699219 3.183594 -1.277344 C 3.183594 -0.867188 3.058594 -0.539062 2.804688 -0.292969 C 2.554688 -0.0429688 2.21875 0.078125 1.796875 0.078125 C 1.339844 0.078125 0.988281 -0.0898438 0.742188 -0.433594 C 0.496094 -0.773438 0.371094 -1.261719 0.371094 -1.894531 C 0.371094 -2.601562 0.515625 -3.152344 0.808594 -3.539062 C 1.101562 -3.929688 1.511719 -4.125 2.039062 -4.125 C 2.183594 -4.125 2.332031 -4.109375 2.492188 -4.082031 C 2.648438 -4.054688 2.808594 -4.015625 2.972656 -3.960938 L 2.972656 -3.292969 L 2.667969 -3.292969 C 2.644531 -3.476562 2.574219 -3.617188 2.457031 -3.710938 C 2.339844 -3.808594 2.183594 -3.855469 1.984375 -3.855469 C 1.632812 -3.855469 1.371094 -3.722656 1.199219 -3.457031 C 1.027344 -3.191406 0.9375 -2.78125 0.933594 -2.230469 Z "/>
</g>
</g>
</defs>
<g fill="rgb(100%, 100%, 100%)" fill-opacity="1">
<use xlink:href="#glyph-0-0" x="30" y="25.157227"/>
<use xlink:href="#glyph-0-1" x="35" y="25.157227"/>
<use xlink:href="#glyph-0-2" x="38" y="25.157227"/>
</g>
</svg>
