<?xml version="1.0" encoding="UTF-8"?>
<svg xmlns="http://www.w3.org/2000/svg" xmlns:xlink="http://www.w3.org/1999/xlink" width="854" height="480" viewBox="0 0 854 480">
<defs>
<g>
<g id="glyph-0-0">
<path d="M 1.511719 -0.316406 L 2.066406 -0.316406 C 2.644531 -0.316406 3.085938 -0.480469 3.398438 -0.8125 C 3.707031 -1.140625 3.859375 -1.613281 3.859375 -2.230469 C 3.859375 -2.847656 3.707031 -3.320312 3.398438 -3.644531 C 3.089844 -3.972656 2.644531 -4.136719 2.066406 -4.136719 L 1.511719 -4.136719 L 1.511719 -0.316406 M 0.335938 0 L 0.335938 -0.316406 L 0.902344 -0.316406 L 0.902344 -4.136719 L 0.335938 -4.136719 L 0.335938 -4.453125 L 2.109375 -4.453125 C 2.878906 -4.453125 3.476562 -4.257812 3.902344 -3.867188 C 4.332031 -3.476562 4.546875 -2.929688 4.546875 -2.230469 C 4.546875 -1.53125 4.332031 -0.984375 3.902344 -0.589844 C 3.472656 -0.195312 2.875 0 2.109375 0 Z "/>
</g>
<g id="glyph-0-1">
<path d="M 3.054688 1.203125 L 3.054688 1.441406 L 0 1.441406 L 0 1.203125 Z "/>
</g>
<g id="glyph-0-2">
<path d="M 0.867188 0 L 0.867188 -0.316406 L 1.644531 -0.316406 L 1.644531 -4.023438 L 0.746094 -3.441406 L 0.746094 -3.832031 L 1.832031 -4.535156 L 2.242188 -4.535156 L 2.242188 -0.316406 L 3.019531 -0.316406 L 3.019531 0 Z "/>
</g>
</g>
</defs>
<g fill="rgb(100%, 100%, 100%)" fill-opacity="1">
<use xlink:href="#glyph-0-0" x="30" y="25.671875"/>
<use xlink:href="#glyph-0-1" x="35" y="25.671875"/>
<use xlink:href="#glyph-0-2" x="38" y="25.671875"/>
</g>
</svg>
