<?xml version="1.0" encoding="UTF-8"?>
<svg xmlns="http://www.w3.org/2000/svg" xmlns:xlink="http://www.w3.org/1999/xlink" width="854" height="480" viewBox="0 0 854 480">
<defs>
<g>
<g id="glyph-0-0">
<path d="M 1.269531 -4.667969 L 1.269531 1.441406 L 0.789062 1.441406 L 0.789062 -4.667969 Z "/>
</g>
<g id="glyph-0-1">
<path d="M 0.34375 -0.175781 L 0.34375 -0.914062 L 0.660156 -0.914062 C 0.667969 -0.679688 0.742188 -0.503906 0.882812 -0.386719 C 1.023438 -0.265625 1.230469 -0.207031 1.503906 -0.207031 C 1.75 -0.207031 1.9375 -0.253906 2.066406 -0.347656 C 2.195312 -0.441406 2.261719 -0.574219 2.261719 -0.75 C 2.261719 -0.890625 2.214844 -1.003906 2.121094 -1.089844 C 2.027344 -1.175781 1.824219 -1.265625 1.523438 -1.363281 L 1.125 -1.496094 C 0.851562 -1.585938 0.65625 -1.695312 0.53125 -1.824219 C 0.410156 -1.957031 0.347656 -2.125 0.347656 -2.328125 C 0.347656 -2.617188 0.457031 -2.84375 0.667969 -3.011719 C 0.882812 -3.175781 1.175781 -3.257812 1.550781 -3.257812 C 1.71875 -3.257812 1.894531 -3.238281 2.078125 -3.191406 C 2.265625 -3.148438 2.457031 -3.085938 2.652344 -3 L 2.652344 -2.308594 L 2.335938 -2.308594 C 2.328125 -2.515625 2.257812 -2.675781 2.121094 -2.789062 C 1.984375 -2.90625 1.800781 -2.960938 1.570312 -2.960938 C 1.339844 -2.960938 1.164062 -2.921875 1.046875 -2.839844 C 0.925781 -2.757812 0.867188 -2.636719 0.867188 -2.472656 C 0.867188 -2.339844 0.914062 -2.234375 1.003906 -2.152344 C 1.09375 -2.070312 1.269531 -1.988281 1.539062 -1.90625 L 1.976562 -1.773438 C 2.277344 -1.679688 2.492188 -1.5625 2.625 -1.421875 C 2.757812 -1.28125 2.824219 -1.101562 2.824219 -0.878906 C 2.824219 -0.578125 2.707031 -0.34375 2.476562 -0.171875 C 2.25 0 1.929688 0.0859375 1.527344 0.0859375 C 1.324219 0.0859375 1.121094 0.0664062 0.929688 0.0195312 C 0.734375 -0.0234375 0.539062 -0.0898438 0.34375 -0.175781 Z "/>
</g>
<g id="glyph-0-2">
<path d="M 0.648438 -3.042969 L 0.648438 -3.550781 L 4.472656 -2.164062 L 4.472656 -1.667969 L 0.648438 -0.28125 L 0.648438 -0.789062 L 3.746094 -1.914062 Z "/>
</g>
</g>
</defs>
<g fill="rgb(100%, 100%, 100%)" fill-opacity="1">
<use xlink:href="#glyph-0-0" x="30" y="25.671875"/>
<use xlink:href="#glyph-0-1" x="32" y="25.671875"/>
<use xlink:href="#glyph-0-2" x="35" y="25.671875"/>
</g>
</svg>
