<?xml version="1.0" encoding="UTF-8"?>
<svg xmlns="http://www.w3.org/2000/svg" xmlns:xlink="http://www.w3.org/1999/xlink" width="854" height="480" viewBox="0 0 854 480">
<defs>
<g>
<g id="glyph-0-0">
<path d="M 2.507812 -0.234375 C 2.992188 -0.234375 3.363281 -0.398438 3.609375 -0.734375 C 3.859375 -1.070312 3.984375 -1.566406 3.984375 -2.222656 C 3.984375 -2.882812 3.859375 -3.378906 3.609375 -3.714844 C 3.363281 -4.046875 2.992188 -4.214844 2.507812 -4.214844 C 2.015625 -4.214844 1.648438 -4.046875 1.398438 -3.714844 C 1.152344 -3.378906 1.027344 -2.882812 1.027344 -2.222656 C 1.027344 -1.566406 1.152344 -1.070312 1.398438 -0.734375 C 1.648438 -0.398438 2.015625 -0.234375 2.507812 -0.234375 M 2.507812 0.0859375 C 2.203125 0.0859375 1.925781 0.0351562 1.671875 -0.0625 C 1.417969 -0.164062 1.195312 -0.308594 1.003906 -0.5 C 0.78125 -0.722656 0.613281 -0.976562 0.503906 -1.257812 C 0.398438 -1.542969 0.34375 -1.863281 0.34375 -2.222656 C 0.34375 -2.582031 0.398438 -2.90625 0.503906 -3.1875 C 0.613281 -3.472656 0.78125 -3.726562 1.003906 -3.949219 C 1.199219 -4.140625 1.421875 -4.289062 1.671875 -4.386719 C 1.921875 -4.484375 2.199219 -4.535156 2.507812 -4.535156 C 3.152344 -4.535156 3.675781 -4.324219 4.074219 -3.898438 C 4.46875 -3.476562 4.667969 -2.917969 4.667969 -2.222656 C 4.667969 -1.867188 4.613281 -1.546875 4.503906 -1.261719 C 4.394531 -0.976562 4.230469 -0.722656 4.007812 -0.5 C 3.8125 -0.304688 3.589844 -0.160156 3.339844 -0.0625 C 3.089844 0.0390625 2.8125 0.0859375 2.507812 0.0859375 Z "/>
</g>
<g id="glyph-0-1">
<path d="M 3.054688 1.203125 L 3.054688 1.441406 L 0 1.441406 L 0 1.203125 Z "/>
</g>
<g id="glyph-0-2">
<path d="M 0.59375 -4.265625 C 0.828125 -4.355469 1.050781 -4.421875 1.261719 -4.464844 C 1.476562 -4.511719 1.679688 -4.535156 1.863281 -4.535156 C 2.300781 -4.535156 2.640625 -4.441406 2.886719 -4.253906 C 3.128906 -4.066406 3.253906 -3.804688 3.253906 -3.46875 C 3.253906 -3.203125 3.167969 -2.976562 3 -2.796875 C 2.828125 -2.617188 2.589844 -2.496094 2.28125 -2.433594 C 2.644531 -2.378906 2.929688 -2.246094 3.132812 -2.035156 C 3.332031 -1.820312 3.433594 -1.542969 3.433594 -1.203125 C 3.433594 -0.785156 3.292969 -0.46875 3.015625 -0.246094 C 2.734375 -0.0234375 2.332031 0.0859375 1.808594 0.0859375 C 1.574219 0.0859375 1.347656 0.0625 1.125 0.0117188 C 0.90625 -0.0390625 0.683594 -0.113281 0.464844 -0.214844 L 0.464844 -1.082031 L 0.800781 -1.082031 C 0.820312 -0.792969 0.914062 -0.578125 1.089844 -0.429688 C 1.261719 -0.28125 1.503906 -0.207031 1.820312 -0.207031 C 2.125 -0.207031 2.363281 -0.296875 2.539062 -0.472656 C 2.714844 -0.648438 2.804688 -0.890625 2.804688 -1.195312 C 2.804688 -1.546875 2.714844 -1.8125 2.53125 -1.992188 C 2.351562 -2.171875 2.085938 -2.261719 1.738281 -2.261719 L 1.453125 -2.261719 L 1.453125 -2.566406 L 1.601562 -2.566406 C 1.949219 -2.566406 2.210938 -2.636719 2.386719 -2.78125 C 2.558594 -2.925781 2.648438 -3.144531 2.648438 -3.433594 C 2.648438 -3.695312 2.574219 -3.894531 2.433594 -4.03125 C 2.289062 -4.171875 2.082031 -4.238281 1.8125 -4.238281 C 1.546875 -4.238281 1.335938 -4.175781 1.1875 -4.050781 C 1.039062 -3.921875 0.953125 -3.734375 0.929688 -3.480469 L 0.59375 -3.480469 Z "/>
</g>
</g>
</defs>
<g fill="rgb(100%, 100%, 100%)" fill-opacity="1">
<use xlink:href="#glyph-0-0" x="30" y="25.671875"/>
<use xlink:href="#glyph-0-1" x="35" y="25.671875"/>
<use xlink:href="#glyph-0-2" x="38" y="25.671875"/>
</g>
</svg>
